PathFileType	4	(X/Y/Z)	36_1_14_p1_0-313_filt_butterworth.trc
DataRate	CameraRate	NumFrames	NumMarkers	Units	OrigDataRate	OrigDataStartFrame	OrigNumFrames
41.0	41.0	6	27	m	41.0	156	313
Frame#	Time	RHip			RKnee			RAnkle			RBigToe			RSmallToe			RHeel			LHip			LKnee			LAnkle			LBigToe			LSmallToe			LHeel			Neck			Head			Nose			RShoulder			RElbow			RWrist			RThumb			RIndex			RPinky			LShoulder			LElbow			LWrist			LThumb			LIndex			LPinky			
		X1	Y1	Z1	X2	Y2	Z2	X3	Y3	Z3	X4	Y4	Z4	X5	Y5	Z5	X6	Y6	Z6	X7	Y7	Z7	X8	Y8	Z8	X9	Y9	Z9	X10	Y10	Z10	X11	Y11	Z11	X12	Y12	Z12	X13	Y13	Z13	X14	Y14	Z14	X15	Y15	Z15	X16	Y16	Z16	X17	Y17	Z17	X18	Y18	Z18	X19	Y19	Z19	X20	Y20	Z20	X21	Y21	Z21	X22	Y22	Z22	X23	Y23	Z23	X24	Y24	Z24	X25	Y25	Z25	X26	Y26	Z26	X27	Y27	Z27	
156	3.804878048780488	0.3167562878820687	0.5643329840615321	-0.1389296260666445	0.3574751589469151	0.6610524420086383	0.27723540494175	0.3855265459198921	0.7499491907670623	0.7226093457692797	0.33254634600394717	0.5227353270584697	0.7421217141103837	0.4037815578095867	0.5657911656924517	0.7506511531547626	0.35586493066230307	0.8404081673151035	0.783244176523884	0.11365225596809506	0.573972767792414	-0.12310209983088513	0.1457063815200743	0.6714578951108867	0.3080450700752443	0.1899578093976459	0.7290569862158722	0.7223206231086778	0.17890341854843567	0.5358311034377982	0.7480131368647699	0.1296385413143072	0.5943915320807371	0.7692849076887742	0.21083685558372223	0.7951214545453251	0.7898965262093604	0.16395066256088703	0.47615712030818597	-0.7606210702520035	0.1451923407164173	0.36779366511167255	-1.0241210492852022	0.17009391570302299	0.30961554743164266	-0.8566353423074895	0.34206855567945227	0.5393520613223509	-0.7196528140545758	0.45038909793894544	0.5680189429758706	-0.46031893141661817	0.38187121624632936	0.4322843576060874	-0.2518276450294186	0.2632968907476811	0.3262238057417994	-0.20324389728513922	0.2790350050034441	0.3072199107437618	-0.18033470414509767	0.321686336074668	0.3797067585071398	-0.1429459811115364	-0.004530173298632992	0.4788011095202828	-0.6812623355207976	-0.0435166485022663	0.5670536594266096	-0.39485927142790417	0.08175310213901167	0.4053968290103868	-0.17229372350261327	0.1709917251860832	0.3748644891216605	-0.12902210686201127	0.1665369735560145	0.3330637168167705	-0.0789059683298587	0.13134879445175202	0.39904193031180324	-0.05725527282007682
157	3.829268292682927	0.3179629652582022	0.5654889251630564	-0.1372173161919477	0.3574692579356832	0.6608688939623422	0.2755569032900804	0.3875848387348911	0.7412800510929278	0.7192403854378024	0.33234205475113066	0.522261733718722	0.7420345266897792	0.40371083952625975	0.5649018330298969	0.7504754347829115	0.35806346068519584	0.8318240159260617	0.7800959732381109	0.1145507614027044	0.5799449765245077	-0.12050136614757262	0.14582305823070374	0.6711816843513827	0.30782375747938184	0.19004466782187476	0.7287284785197892	0.7221469574811948	0.17836437713643727	0.5347720194005835	0.7455933506440843	0.12970889067071903	0.5942391206730778	0.7691703027236041	0.21090091290211652	0.7955374976840675	0.7903022163428799	0.16419488743606298	0.47613117228046375	-0.7588151028593066	0.14358755484287533	0.3686532680117123	-1.0238292706334131	0.17167896713603736	0.31096248515639113	-0.8525779196027895	0.3404065642535191	0.5334883817314581	-0.7191677691746069	0.45088830346260955	0.5729913359249703	-0.46805178161901706	0.379228682102699	0.43067002888948674	-0.2687408533492901	0.2626122262378518	0.3362847972840366	-0.22386317285143192	0.27498869552188904	0.3125456531579847	-0.19950950172568133	0.31975156034452784	0.38154020135625233	-0.16150306853076407	-0.004635015882021882	0.47945813352320377	-0.681381200687273	-0.046960650546222386	0.5693936742979107	-0.39742263633469016	0.080836015406488	0.40486103214525404	-0.1789432580880659	0.1693494508334432	0.3686127821928733	-0.1435125096031024	0.167606015714308	0.32614899955896715	-0.08489347838220636	0.14214874856489462	0.3702327253503853	-0.06667528758447852
158	3.8536585365853657	0.3179688248901163	0.5647185430094503	-0.13943385135880704	0.357080503376761	0.6601188599969929	0.27351503571375174	0.3884617137073768	0.735357256129004	0.716621707714141	0.3321357408752307	0.5217478270314799	0.7421206826147818	0.4036538432156492	0.5637915026868581	0.7502981415417365	0.3595180489443431	0.8262893402613964	0.7787177800093903	0.11449094269454542	0.5826490221281501	-0.11792556892192907	0.1471919295158011	0.6662773699260259	0.30605150144709176	0.19001654448112648	0.7284157852527493	0.7219590444158694	0.17804691237445452	0.534082753168982	0.7440896239817147	0.12993314557527127	0.5941993017883264	0.7678727792846856	0.2109147591091742	0.7957660988163977	0.7905161943318373	0.1643420984818572	0.47606384035319094	-0.7577299367952297	0.14264069658291817	0.36481366488545586	-1.0232392706358804	0.17183465293359848	0.3115730791308147	-0.8486402915295546	0.33938828717481173	0.5299454201936157	-0.7187690067341771	0.4509884719478821	0.5766540046505212	-0.47553231471633023	0.3768848495269305	0.4270912400120195	-0.28521188026413136	0.2635026617537696	0.3457313154766207	-0.23825101483288058	0.2753120443229855	0.32046869593787114	-0.21943363118197182	0.31730508690277076	0.3827006704715502	-0.17538125722331904	-0.0046172470779941984	0.47908814891385887	-0.6810604701078864	-0.04701953583333461	0.5693881438100126	-0.3998327479957476	0.08041849559534729	0.4000356775732422	-0.1885582269518209	0.1685764825044498	0.3550789837912638	-0.15314694790057432	0.16671706859678037	0.31965370822195827	-0.09741839132113209	0.1505441661052588	0.3444086271849437	-0.07505682908113892
159	3.8780487804878048	0.3181374079893065	0.5587123341017657	-0.1432525354820101	0.35644687627371874	0.659656919629446	0.27277972267113015	0.387619301478362	0.7344304753914648	0.7152012389747553	0.3322301857635603	0.5215073171870941	0.7419878307310293	0.40363684366043556	0.5631340056430871	0.7500838685567006	0.35980829990016905	0.8251835789501414	0.7784305624579964	0.113589599771306	0.5824741841726868	-0.11696248172358695	0.14954743294480202	0.6581242336869849	0.30311207472678364	0.18995422044294583	0.7282896698323497	0.7218690525952581	0.17804405140308976	0.534000033970657	0.7439926317637234	0.13023581969705736	0.5941740439166254	0.7657904569694512	0.21088174741194934	0.7956750867225565	0.7904354516132753	0.1643535874212406	0.47586192713192094	-0.7576776859923463	0.1448669514571848	0.35253034452174403	-1.0201911073414578	0.17103110929870782	0.3082864389103881	-0.847239339113315	0.33925800984794074	0.5298800050901983	-0.7203797297052066	0.45001863602006287	0.5809812968146303	-0.48067422302622226	0.37601784841407904	0.42212325033972586	-0.2997110446142467	0.26558218297943814	0.3485813268663666	-0.2502722341783684	0.27861115057879543	0.3101594142036558	-0.2422293807292918	0.31674984763157277	0.37259239423380575	-0.1888456229474698	-0.004362701719005272	0.4742851354432459	-0.6799401405420804	-0.046831487418624904	0.5689680197539927	-0.40241815070337783	0.08075630904124911	0.39158297497600875	-0.20579378263784703	0.1675994267596365	0.34655714032340923	-0.16417693517157644	0.16511033636049507	0.31409564942287804	-0.1222883670884237	0.15335244659912264	0.3282365923209293	-0.09447917002104675
160	3.902439024390244	0.3216319416413361	0.5497097456745367	-0.14697989788027804	0.3561673144656542	0.6604836758553932	0.2767530786137754	0.38674539354190074	0.7351204393782914	0.7151420207608024	0.3323032945770583	0.521128850965202	0.740408585762723	0.4036153295016196	0.5632166247187363	0.7500662501080471	0.35954543509615167	0.8262470567079251	0.778710943802797	0.11291934791892158	0.5817090354433984	-0.11739106505027483	0.1510353402705238	0.6531453495535664	0.30129895013001007	0.18995639895738914	0.7283706177433991	0.7218467629423344	0.17808827285558873	0.5341043594744754	0.7443340762216992	0.13041315599942455	0.5941609755147566	0.7645879305085209	0.2108359874393711	0.79557406561531	0.7903509080010676	0.16428563829872292	0.47579502637198223	-0.757806986584364	0.14930622856862913	0.3385315489194839	-1.0146944890774818	0.17162828839261599	0.3022227192205987	-0.8467250590756241	0.33932950745110163	0.5304493033380772	-0.7242865050056482	0.45014814837093703	0.5855210747564238	-0.4859427032253837	0.3762359431471346	0.41691056697689777	-0.31439721990755176	0.26802352774301763	0.3492488448909948	-0.26709909125938974	0.2829977304304048	0.2837891804562002	-0.2641239299314773	0.31950178963642967	0.35208867822306505	-0.2082273135578079	-0.003985877518319735	0.4672993848681172	-0.6782425126213175	-0.04834583127516623	0.5684699345384747	-0.4061900293790203	0.0809973240874755	0.38540110286126905	-0.22536999964865567	0.16597057297948464	0.34634700083674463	-0.1863861671950393	0.16505375502511083	0.30083405553394515	-0.15467109773677706	0.15305628399774726	0.31861332373834655	-0.12681476859213575
161	3.926829268292683	0.3270111757796145	0.5441506343392173	-0.14971612436600287	0.3563513048898224	0.6618917362328353	0.2847766069711494	0.3869124820690339	0.7353514769033517	0.7165439486121163	0.3313326408792198	0.5198071298794874	0.7375631036495256	0.4036028259182207	0.5646275306336943	0.7507097683393795	0.3582744082017779	0.8314119829844596	0.7810960392870978	0.11423323818612437	0.5764721945479102	-0.11927943309211797	0.1512473807844791	0.6530982452374864	0.30132392901902505	0.1900632285049952	0.7286130371207695	0.7219118583244372	0.17805828310418498	0.5340880226251197	0.7445218808788593	0.13046450647485477	0.5941650681738324	0.7645699219509224	0.2108507983778467	0.7957199823908436	0.7904841601796115	0.16409733416837627	0.4763200012437206	-0.7577195487193958	0.1538611580237474	0.3319438813016071	-1.0098037023524316	0.17450065671251336	0.2987732049344649	-0.8448614416804661	0.3393154991201177	0.5304536184447846	-0.7264481303669463	0.4520192628810512	0.5854162795638628	-0.4914731503572387	0.3764519702256143	0.41301956767006537	-0.32915026945736314	0.2705558580303265	0.346259394122972	-0.2892265313364484	0.29156144556636787	0.26412940243683736	-0.2808586814731071	0.3241984779160473	0.3282277854431747	-0.23250625566451807	-0.0037325930882171356	0.4637376917962029	-0.6769899909152929	-0.0509458375521496	0.5677654923958059	-0.4107962629635786	0.07995989286432656	0.38343500442788847	-0.24031926954168936	0.1642483354994224	0.3464024895827781	-0.2163312267999769	0.16610761803509333	0.2797065877865396	-0.18351819085623433	0.15256675362650146	0.31025025760587865	-0.15575245441374935
